<svg width="14" height="14" viewBox="0 0 14 14" fill="none" xmlns="http://www.w3.org/2000/svg"><path d="M7.06428 5.93342C7.6876 5.93342 8.19304 6.43904 8.19319 7.06233C8.19319 7.68573 7.68769 8.19123 7.06428 8.19123C6.44096 8.19113 5.93537 7.68567 5.93537 7.06233C5.93552 6.43911 6.44105 5.93353 7.06428 5.93342Z" fill="#ffffff"></path><path fill-rule="evenodd" clip-rule="evenodd" d="M8.68147 0.963693C10.1168 0.447019 11.6266 0.374829 12.5633 1.31135C13.5 2.24805 13.4276 3.75776 12.911 5.19319C12.7126 5.74431 12.4385 6.31796 12.0965 6.89729C12.4969 7.54638 12.8141 8.19018 13.036 8.80647C13.5527 10.2419 13.625 11.7516 12.6883 12.6883C11.7516 13.625 10.2419 13.5527 8.80647 13.036C8.19019 12.8141 7.54638 12.4969 6.89729 12.0965C6.31794 12.4386 5.74432 12.7125 5.19319 12.911C3.75774 13.4276 2.24807 13.5 1.31135 12.5633C0.374829 11.6266 0.447019 10.1168 0.963693 8.68147C1.17182 8.10338 1.46318 7.50063 1.82893 6.8924C1.52179 6.35711 1.27232 5.82825 1.08869 5.31819C0.572038 3.88278 0.499683 2.37306 1.43635 1.43635C2.37304 0.499655 3.88277 0.572044 5.31819 1.08869C5.82825 1.27232 6.35712 1.5218 6.8924 1.82893C7.50063 1.46318 8.10338 1.17181 8.68147 0.963693ZM11.3572 8.01154C10.9083 8.62253 10.3901 9.22873 9.8094 9.8094C9.22874 10.3901 8.62252 10.9083 8.01154 11.3572C8.42567 11.5841 8.82867 11.7688 9.21272 11.9071C10.5455 12.3868 11.4246 12.2547 11.8397 11.8397C12.2547 11.4246 12.3869 10.5456 11.9071 9.21272C11.7688 8.82866 11.5841 8.42568 11.3572 8.01154ZM2.56526 8.02912C2.3734 8.39322 2.21492 8.74796 2.0926 9.08772C1.61288 10.4204 1.74509 11.2995 2.15998 11.7147C2.57502 12.1297 3.45412 12.2618 4.78694 11.7821C5.11053 11.6656 5.44783 11.5164 5.79377 11.3367C5.24897 10.9223 4.70919 10.4533 4.19026 9.9344C3.57575 9.31987 3.03166 8.67633 2.56526 8.02912ZM6.90705 3.2469C6.24062 3.70479 5.56457 4.26321 4.91389 4.91389C4.26322 5.56456 3.70479 6.24063 3.2469 6.90705C3.72671 7.63325 4.32774 8.37459 5.03889 9.08576C5.6494 9.69627 6.2818 10.2265 6.90803 10.6678C7.59365 10.2025 8.29077 9.63076 8.96076 8.96076C9.63077 8.29075 10.2025 7.59366 10.6678 6.90803C10.2265 6.2818 9.69628 5.6494 9.08576 5.03889C8.37459 4.32773 7.63325 3.72672 6.90705 3.2469ZM11.7147 2.15998C11.2995 1.74509 10.4204 1.61288 9.08772 2.0926C8.74832 2.21479 8.39379 2.37271 8.0301 2.56428C8.67725 3.03065 9.31992 3.5758 9.9344 4.19026C10.4533 4.7092 10.9223 5.24896 11.3367 5.79377C11.5164 5.44785 11.6656 5.11052 11.7821 4.78694C12.2618 3.45416 12.1297 2.57502 11.7147 2.15998ZM4.91194 2.2176C3.57918 1.73788 2.70001 1.86995 2.28498 2.28498C1.86998 2.70003 1.73788 3.5792 2.2176 4.91194C2.31706 5.18822 2.44109 5.47427 2.58674 5.7674C3.01928 5.1887 3.51471 4.6158 4.06526 4.06526C4.61581 3.5147 5.18869 3.01928 5.7674 2.58674C5.47428 2.4411 5.18821 2.31706 4.91194 2.2176Z" fill="#ffffff"></path></svg>