<svg width="20" height="20" viewBox="0 0 20 20" fill="none" xmlns="http://www.w3.org/2000/svg"><path d="M14.8113 15.8271C13.5355 16.8432 11.9198 17.4502 10.1599 17.4502V19.0498C12.2947 19.0498 14.2593 18.312 15.8084 17.0781L14.8113 15.8271ZM15.9939 5.35352C17.0139 6.62776 17.6238 8.24181 17.6238 10C17.6238 11.7582 17.0139 13.3722 15.9939 14.6465L17.2439 15.6465C18.4826 14.099 19.2234 12.1348 19.2234 10C19.2234 7.86525 18.4826 5.90103 17.2439 4.35352L15.9939 5.35352ZM1.95972 6.33594C0.912026 8.63275 0.776579 11.3729 1.96949 13.8799L3.41382 13.1924C2.44402 11.1543 2.54402 8.91111 3.41578 7L1.95972 6.33594ZM10.1599 0.950195C7.35573 0.950203 4.95212 2.24332 3.3357 4.16113L4.55933 5.19238C5.90077 3.60083 7.8707 2.54981 10.1599 2.5498C11.9198 2.54982 13.5355 3.15676 14.8113 4.17285L15.8084 2.92188C14.2593 1.68801 12.2947 0.950206 10.1599 0.950195Z" fill="#94989d"></path><path d="M6.33863 16.2573C5.45619 15.642 4.19001 15.4232 3.14527 16.0825L3.12769 16.0933L2.12964 16.7964L2.63257 18.2935L2.6814 18.3648L4.0066 17.4312C4.37843 17.2015 4.93515 17.2284 5.42359 17.5689C5.84126 17.8602 6.24521 18.0987 6.65992 18.2867L7.38843 18.6168L8.04957 17.1597L7.32105 16.8296C7.01376 16.6903 6.69427 16.5054 6.33863 16.2573Z" fill="#94989d"></path></svg>