<svg width="20" height="20" viewBox="0 0 20 20" fill="none" xmlns="http://www.w3.org/2000/svg"><path d="M9.73047 1.98239C9.73046 1.21153 10.6128 0.810523 11.1895 1.25486L11.3008 1.35544L18.3906 8.83005C18.8698 9.33527 18.8696 10.1273 18.3906 10.6328L11.3008 18.1152C10.735 18.7123 9.73046 18.3118 9.73047 17.4892V12.9765C9.05058 12.9603 8.23982 12.9642 7.26075 13.206C5.95079 13.5297 4.32474 14.294 2.49512 16.1133C2.27349 16.3334 1.96525 16.3697 1.72364 16.2793C1.47489 16.1859 1.24879 15.9363 1.25 15.5937L1.25879 15.167C1.33996 13.0226 1.97201 10.7003 3.34278 8.85642C4.71905 7.00534 6.81702 5.67342 9.73047 5.48728V1.98239ZM11.1504 6.15427C11.1502 6.57441 10.8056 6.88304 10.4209 6.88376C7.60432 6.88909 5.7029 8.06242 4.48243 9.70407C3.57516 10.9245 3.03042 12.426 2.79981 13.9394C4.29988 12.7446 5.69229 12.1304 6.91993 11.8271C8.47348 11.4433 9.75076 11.5693 10.4229 11.5713C10.8512 11.5725 11.1504 11.926 11.1504 12.3017V16.209L17.2881 9.73142L11.1504 3.25974V6.15427Z" fill="#ffffff"></path></svg>