<svg width="16" height="16" viewBox="0 0 16 16" fill="none" xmlns="http://www.w3.org/2000/svg"><path d="M4.5514 8C4.5514 8.63513 4.03653 9.15 3.4014 9.15C2.76628 9.15 2.2514 8.63513 2.2514 8C2.2514 7.36487 2.76628 6.85 3.4014 6.85C4.03653 6.85 4.5514 7.36487 4.5514 8Z" fill="#ffffff"></path><path d="M9.14754 8C9.14754 8.63513 8.63267 9.15 7.99754 9.15C7.36242 9.15 6.84754 8.63513 6.84754 8C6.84754 7.36487 7.36242 6.85 7.99754 6.85C8.63267 6.85 9.14754 7.36487 9.14754 8Z" fill="#ffffff"></path><path d="M13.7486 8C13.7486 8.63513 13.2337 9.15 12.5986 9.15C11.9634 9.15 11.4486 8.63513 11.4486 8C11.4486 7.36487 11.9634 6.85 12.5986 6.85C13.2337 6.85 13.7486 7.36487 13.7486 8Z" fill="#ffffff"></path></svg>