<svg width="35" height="24" viewBox="0 0 35 24" fill="none" xmlns="http://www.w3.org/2000/svg"><g clip-path="url(#clip0_4892_24313)"><path d="M26.5542 4.34393C26.2719 4.20592 26.1506 4.46928 25.9856 4.60268C25.9292 4.64581 25.8815 4.70216 25.8338 4.75391C25.4215 5.19438 24.9396 5.48361 24.3105 5.44911C23.3905 5.39736 22.605 5.68659 21.9104 6.39041C21.7626 5.52271 21.2721 5.00462 20.5258 4.67226C20.1353 4.49976 19.7403 4.32668 19.4666 3.95119C19.2757 3.68381 19.2234 3.38595 19.1279 3.09211C19.0669 2.91501 19.0066 2.73388 18.8024 2.7034C18.5811 2.6689 18.4942 2.85463 18.4074 3.00989C18.0601 3.6447 17.9255 4.34393 17.9388 5.05235C17.9692 6.64572 18.642 7.91478 19.9789 8.81756C20.1307 8.92106 20.1698 9.02457 20.1221 9.1758C20.0307 9.48688 19.9226 9.78876 19.8271 10.0998C19.7662 10.2982 19.6753 10.3419 19.4626 10.2551C18.7288 9.94862 18.0952 9.49493 17.5351 8.94694C16.5846 8.02749 15.7249 7.01258 14.6531 6.21791C14.4013 6.03218 14.1494 5.85967 13.8889 5.69522C12.7952 4.63316 14.0321 3.76086 14.3185 3.65736C14.618 3.54925 14.4225 3.17779 13.4548 3.18239C12.487 3.18642 11.6015 3.51073 10.4727 3.94256C10.3077 4.00754 10.1341 4.05469 9.95637 4.09379C8.93227 3.89944 7.86849 3.85631 6.75755 3.98167C4.66564 4.21455 2.99464 5.20358 1.7664 6.89183C0.290908 8.92106 -0.0564026 11.2269 0.368535 13.6316C0.815324 16.1663 2.10911 18.2645 4.09695 19.905C6.15838 21.6059 8.53263 22.4397 11.2415 22.2799C12.8867 22.185 14.7181 21.9648 16.7841 20.2161C17.3051 20.4755 17.8519 20.579 18.7587 20.6566C19.4574 20.7216 20.1302 20.6221 20.6511 20.514C21.4671 20.3415 21.4107 19.5859 21.1157 19.4473C18.7242 18.3335 19.2492 18.7866 18.772 18.4198C19.987 16.9822 21.8431 14.4269 22.4158 10.9474C22.4722 10.5633 22.5441 10.0222 22.5355 9.71114C22.5309 9.52138 22.5746 9.44778 22.7913 9.42593C23.3905 9.35693 23.9718 9.19305 24.506 8.89921C26.0557 8.05279 26.6808 6.6624 26.828 4.996C26.8498 4.74126 26.8234 4.47791 26.5542 4.34393ZM13.0511 19.3438C10.7332 17.5216 9.60906 16.9219 9.14502 16.9477C8.71089 16.9736 8.78909 17.4704 8.88454 17.7942C8.98459 18.1139 9.11455 18.3341 9.29683 18.6147C9.42276 18.8004 9.50959 19.0764 9.1709 19.284C8.42453 19.7458 7.12671 19.1288 7.06576 19.0983C5.55519 18.2087 4.29245 17.0346 3.40233 15.4285C2.54268 13.8829 2.04356 12.2245 1.96133 10.4546C1.93948 10.0274 2.06541 9.87617 2.49092 9.79854C3.05099 9.69504 3.62831 9.67319 4.1878 9.75541C6.55342 10.101 8.56713 11.1585 10.2554 12.8341C11.2191 13.788 11.9482 14.9283 12.6992 16.0421C13.4979 17.2249 14.357 18.3519 15.4512 19.276C15.8377 19.5997 16.1459 19.8458 16.4408 20.0275C15.5513 20.127 14.0666 20.1483 13.0511 19.345V19.3438ZM14.162 12.1981C14.162 12.0083 14.3139 11.8571 14.5048 11.8571C14.5479 11.8571 14.587 11.8657 14.6221 11.8784C14.6698 11.8956 14.7135 11.9215 14.748 11.9606C14.8089 12.021 14.8434 12.1072 14.8434 12.1981C14.8434 12.3878 14.6916 12.5391 14.5007 12.5391C14.3098 12.5391 14.162 12.3878 14.162 12.1981ZM17.6127 13.968C17.3913 14.0588 17.17 14.1365 16.9572 14.1451C16.6271 14.1623 16.2672 14.0284 16.0717 13.8645C15.7681 13.6098 15.5507 13.4671 15.4599 13.0227C15.4208 12.8329 15.4426 12.5391 15.4771 12.3706C15.5553 12.0078 15.4685 11.7749 15.2126 11.5633C15.0045 11.3908 14.7394 11.343 14.4484 11.343C14.3397 11.343 14.2403 11.2953 14.1661 11.2568C14.0447 11.1964 13.9447 11.0452 14.0401 10.8594C14.0706 10.7991 14.2184 10.6524 14.2529 10.6266C14.6479 10.4017 15.1034 10.4753 15.5248 10.6438C15.9153 10.8037 16.2108 11.0969 16.6358 11.5115C17.0699 12.0124 17.1481 12.1504 17.3954 12.5264C17.5909 12.8203 17.7686 13.1221 17.8905 13.4677C17.9641 13.6834 17.8686 13.8599 17.6127 13.968Z" fill="#5686fe"></path></g><defs><clipPath id="clip0_4892_24313"><rect width="26.634" height="19.6" fill="white" transform="translate(0.199951 2.69922)"></rect></clipPath></defs></svg>